#N canvas 695 201 1190 714 10;
#X text 351 9 incoming velocity (0-127);
#X text 15 53 NOTE OFF;
#X obj 84 52 sel 0, f 17;
#X text 205 49 NOTE ON r: 1-127, f 11;
#X obj 84 81 t b b;
#X obj 183 80 / 127;
#X msg 110 112 stop;
#X obj 183 110 t b b f, f 29;
#X text 199 135 decay:;
#X text 93 158 release:;
#X obj 182 161 del;
#X obj 226 161 r A;
#X msg 84 180 0;
#X obj 130 181 r R;
#X obj 84 212 pack, f 8;
#X obj 190 235 f;
#X obj 305 236 r A;
#X msg 272 235 1;
#X obj 273 273 pack;
#X obj 188 275 pack;
#X obj 235 275 r D;
#X obj 173 369 line~;
#X obj 172 410 *~, f 37;
#X obj 173 453 outlet~;
#X obj 189 17 inlet pres;
#X obj 84 16 inlet vel;
#X obj 210 198 * 100;
#X connect 2 0 4 0;
#X connect 2 1 5 0;
#X connect 4 0 12 0;
#X connect 4 1 6 0;
#X connect 5 0 7 0;
#X connect 6 0 10 0;
#X connect 7 0 10 0;
#X connect 7 1 17 0;
#X connect 7 2 22 1;
#X connect 10 0 15 0;
#X connect 11 0 10 1;
#X connect 12 0 14 0;
#X connect 13 0 14 1;
#X connect 14 0 21 0;
#X connect 15 0 19 0;
#X connect 16 0 18 1;
#X connect 17 0 18 0;
#X connect 18 0 21 0;
#X connect 19 0 21 0;
#X connect 20 0 19 1;
#X connect 21 0 22 0;
#X connect 22 0 23 0;
#X connect 24 0 26 0;
#X connect 25 0 2 0;
#X connect 26 0 15 1;
