#N canvas 346 156 1570 888 10;
#X msg 19 115 2;
#X msg 264 117 3;
#X msg 506 116 4;
#X msg 17 270 5;
#X msg 238 269 6;
#X msg 489 269 7;
#X obj 334 83 loadbang;
#X obj 19 147 strisoTone, f 27;
#X obj 261 147 strisoTone, f 27;
#X obj 505 148 strisoTone, f 27;
#X obj 60 344 strisoTone, f 27;
#X obj 281 344 strisoTone, f 27;
#X obj 532 344 strisoTone, f 27;
#N canvas 59 83 1836 961 strisoPlay 1;
#X obj 454 12 inlet~ w1;
#X obj 517 11 inlet~ w2;
#X obj 583 12 inlet~ w3;
#X obj 649 12 inlet~ w4;
#X obj 716 13 inlet~ w5;
#X obj 783 11 inlet~ w6;
#X obj 59 452 throw~ outL;
#X obj 146 451 throw~ outR;
#X obj 28 64 expr~ $v1 + $v2 + $v3 + $v4 + $v5 + $v6, f 60;
#X obj 26 14 inlet~ a1;
#X obj 97 14 inlet~ a2;
#X obj 167 13 inlet~ a3;
#X obj 239 13 inlet~ a4;
#X obj 308 14 inlet~ a5;
#X obj 379 13 inlet~ a6;
#X obj 16 285 /~;
#X obj 51 285 /~;
#X obj 92 285 /~;
#X obj 128 285 /~;
#X obj 164 284 /~;
#X obj 202 283 /~;
#X obj 16 339 expr~ ($v1 * $v7) + ($v2 * $v8) + ($v3 * $v9) + ($v4
* $v10) + ($v5 * $v11) + ($v6 * $v12), f 123;
#X connect 0 0 21 6;
#X connect 1 0 21 7;
#X connect 2 0 21 8;
#X connect 3 0 21 9;
#X connect 4 0 21 10;
#X connect 5 0 21 11;
#X connect 8 0 15 1;
#X connect 8 0 16 1;
#X connect 8 0 17 1;
#X connect 8 0 18 1;
#X connect 8 0 19 1;
#X connect 8 0 20 1;
#X connect 9 0 8 0;
#X connect 9 0 15 0;
#X connect 10 0 8 1;
#X connect 10 0 16 0;
#X connect 11 0 8 2;
#X connect 11 0 17 0;
#X connect 12 0 8 3;
#X connect 12 0 18 0;
#X connect 13 0 8 4;
#X connect 13 0 19 0;
#X connect 14 0 8 5;
#X connect 14 0 20 0;
#X connect 15 0 21 0;
#X connect 16 0 21 1;
#X connect 17 0 21 2;
#X connect 18 0 21 3;
#X connect 19 0 21 4;
#X connect 20 0 21 5;
#X connect 21 0 6 0;
#X connect 21 0 7 0;
#X restore 194 488 pd strisoPlay;
#X f 83;
#X obj 748 140 s A;
#X obj 799 138 s D;
#X obj 893 140 s R;
#X obj 842 37 loadbang;
#X obj 843 70 bng 15 250 50 0 empty empty empty 17 7 0 10 -262144 -1
-1;
#X msg 765 99 100;
#X connect 0 0 7 0;
#X connect 1 0 8 0;
#X connect 2 0 9 0;
#X connect 3 0 10 0;
#X connect 4 0 11 0;
#X connect 5 0 12 0;
#X connect 6 0 0 0;
#X connect 6 0 1 0;
#X connect 6 0 2 0;
#X connect 6 0 3 0;
#X connect 6 0 4 0;
#X connect 6 0 5 0;
#X connect 7 0 13 0;
#X connect 7 1 13 6;
#X connect 8 0 13 1;
#X connect 8 1 13 7;
#X connect 9 0 13 2;
#X connect 9 1 13 8;
#X connect 10 0 13 3;
#X connect 10 1 13 9;
#X connect 11 0 13 4;
#X connect 11 1 13 10;
#X connect 12 0 13 5;
#X connect 12 1 13 11;
#X connect 17 0 18 0;
#X connect 18 0 19 0;
#X connect 19 0 14 0;
#X connect 19 0 15 0;
#X connect 19 0 16 0;
