#N canvas 152 71 1570 888 10;
#X msg 19 115 2;
#X msg 264 117 3;
#X msg 506 116 4;
#X msg 17 270 5;
#X msg 238 269 6;
#X msg 489 269 7;
#X obj 334 83 loadbang;
#X obj 19 147 strisoTone, f 27;
#X obj 261 147 strisoTone, f 27;
#X obj 505 148 strisoTone, f 27;
#X obj 60 344 strisoTone, f 27;
#X obj 281 344 strisoTone, f 27;
#X obj 532 344 strisoTone, f 27;
#N canvas 59 83 1836 961 strisoPlay 0;
#X obj 530 10 inlet~ w1;
#X obj 593 9 inlet~ w2;
#X obj 659 10 inlet~ w3;
#X obj 725 10 inlet~ w4;
#X obj 792 11 inlet~ w5;
#X obj 859 9 inlet~ w6;
#X obj 59 452 throw~ outL;
#X obj 146 451 throw~ outR;
#X obj 26 14 inlet~ a1;
#X obj 97 14 inlet~ a2;
#X obj 167 13 inlet~ a3;
#X obj 239 13 inlet~ a4;
#X obj 308 14 inlet~ a5;
#X obj 379 13 inlet~ a6;
#X obj 16 285 /~;
#X obj 51 285 /~;
#X obj 92 285 /~;
#X obj 128 285 /~;
#X obj 164 284 /~;
#X obj 202 283 /~;
#X obj 126 402 dac~;
#X obj 450 10 inlet~ a7;
#X obj 940 10 inlet~ w7;
#X obj 28 64 expr~ $v1 + $v2 + $v3 + $v4 + $v5 + $v6 + $v7, f 60;
#X obj 243 283 /~;
#X obj 16 339 expr~ ($v1 * $v8) + ($v2 * $v9) + ($v3 * $v10) + ($v4
* $v11) + ($v5 * $v12) + ($v6 * $v13) + ($v7 * $v14), f 123;
#X connect 0 0 25 7;
#X connect 1 0 25 8;
#X connect 2 0 25 9;
#X connect 3 0 25 10;
#X connect 4 0 25 11;
#X connect 5 0 25 12;
#X connect 8 0 14 0;
#X connect 8 0 23 0;
#X connect 9 0 15 0;
#X connect 9 0 23 1;
#X connect 10 0 16 0;
#X connect 10 0 23 2;
#X connect 11 0 17 0;
#X connect 11 0 23 3;
#X connect 12 0 18 0;
#X connect 12 0 23 4;
#X connect 13 0 19 0;
#X connect 13 0 23 5;
#X connect 14 0 25 0;
#X connect 15 0 25 1;
#X connect 16 0 25 2;
#X connect 17 0 25 3;
#X connect 18 0 25 4;
#X connect 19 0 25 5;
#X connect 21 0 23 6;
#X connect 21 0 24 0;
#X connect 22 0 25 13;
#X connect 23 0 14 1;
#X connect 23 0 15 1;
#X connect 23 0 16 1;
#X connect 23 0 17 1;
#X connect 23 0 18 1;
#X connect 23 0 19 1;
#X connect 23 0 24 1;
#X connect 24 0 25 6;
#X connect 25 0 20 0;
#X connect 25 0 20 1;
#X restore 194 488 pd strisoPlay;
#N canvas 0 0 1904 976 percuss 0;
#X obj 100 50 strisoAccel;
#X floatatom 200 120 5 0 0 0 - - - 0;
#X floatatom 140 290 5 0 0 0 - - - 0;
#X floatatom 260 400 5 0 0 0 - - - 0;
#X obj 190 350 sel 0;
#X floatatom 350 470 5 0 0 0 - - - 0;
#X obj 240 540 expr if($f1 > $f2 \, $f1 \, $f2);
#X obj 170 430 t b f;
#X obj 490 650 pack;
#X obj 460 770 line;
#X obj 460 539 sel 0;
#X floatatom 500 590 5 0 0 0 - - - 0;
#X obj 600 695 list 0 100;
#X floatatom 460 810 5 0 0 0 - - - 0;
#X obj 350 690 noise~;
#X obj 210 860 outlet~ amp;
#X obj 340 860 outlet~ wave;
#X obj 556 620 50;
#X obj 600 670 del 50;
#X obj 525 488 expr if($f1 < $f2 \, $f2 \, 0);
#X obj 343 735 abs~;
#X obj 174 225 expr if($f1 > 75 \, ($f1-75)/(127-75) \, 0);
#X connect 0 3 1 0;
#X connect 1 0 21 0;
#X connect 2 0 4 0;
#X connect 3 0 6 0;
#X connect 3 0 19 0;
#X connect 4 0 7 0;
#X connect 4 1 3 0;
#X connect 5 0 6 1;
#X connect 5 0 19 1;
#X connect 6 0 5 0;
#X connect 7 0 5 0;
#X connect 7 1 5 0;
#X connect 8 0 9 0;
#X connect 9 0 13 0;
#X connect 9 0 15 0;
#X connect 10 1 11 0;
#X connect 11 0 8 0;
#X connect 11 0 18 0;
#X connect 12 0 9 0;
#X connect 14 0 20 0;
#X connect 17 0 8 1;
#X connect 18 0 12 0;
#X connect 19 0 10 0;
#X connect 20 0 16 0;
#X connect 21 0 2 0;
#X restore 799 400 pd percuss;
#X connect 0 0 7 0;
#X connect 1 0 8 0;
#X connect 2 0 9 0;
#X connect 3 0 10 0;
#X connect 4 0 11 0;
#X connect 5 0 12 0;
#X connect 6 0 0 0;
#X connect 6 0 1 0;
#X connect 6 0 2 0;
#X connect 6 0 3 0;
#X connect 6 0 4 0;
#X connect 6 0 5 0;
#X connect 7 0 13 0;
#X connect 7 1 13 7;
#X connect 8 0 13 1;
#X connect 8 1 13 8;
#X connect 9 0 13 2;
#X connect 9 1 13 9;
#X connect 10 0 13 3;
#X connect 10 1 13 10;
#X connect 11 0 13 4;
#X connect 11 1 13 11;
#X connect 12 0 13 5;
#X connect 12 1 13 12;
#X connect 14 0 13 6;
#X connect 14 1 13 13;
