#N canvas 524 35 1380 937 10;
#X obj 125 322 outlet~ wave;
#X obj 32 20 inlet channel;
#X obj 32 69 strisoNote;
#X obj 172 68 strisoRot;
#X obj 323 66 strisoAccel;
#X obj 70 410 outlet~ amp;
#X obj 144 139 / 171;
#X obj 242 154 +;
#X obj 252 177 mtof;
#X obj 240 256 *~;
#X obj 254 201 phasor~ 0;
#N canvas 392 144 1372 762 bow 1;
#X obj 100 20 inlet pressure;
#X obj 130 600 outlet amp;
#X obj 100 90 / 127;
#X obj 320 20 inlet downVel;
#X obj 210 20 inlet ypressure;
#X obj 210 130 t b f;
#X obj 100 130 t b f;
#X floatatom 330 140 5 0 0 0 - - - 0;
#X floatatom 50 230 5 0 0 0 - - - 0;
#X obj 140 250 min 1;
#X obj 220 300 *;
#X floatatom 230 560 5 0 0 0 - - - 0;
#X floatatom 90 380 5 0 0 0 - - - 0;
#X floatatom 230 340 5 0 0 0 - - - 0;
#X floatatom 290 260 5 0 0 0 - - - 0;
#X obj 130 220 expr -$f1;
#X obj 80 340 expr 1-$f1;
#X floatatom 160 380 5 0 0 0 - - - 0;
#X obj 160 500 +;
#X obj 50 430 *;
#X floatatom 50 500 5 0 0 0 - - - 0;
#X obj 300 440 *;
#X obj 130 190 log 4;
#X obj 170 450 t b f;
#X obj 148 529 min 1;
#X obj 150 560 max 0;
#X obj 240 200 expr pow(min(1 \, -log10(abs($f1)/59)) \, 6);
#X connect 0 0 2 0;
#X connect 2 0 6 0;
#X connect 4 0 5 0;
#X connect 5 0 10 0;
#X connect 5 0 21 0;
#X connect 5 1 7 0;
#X connect 5 1 26 0;
#X connect 6 0 22 0;
#X connect 6 1 8 0;
#X connect 6 1 22 0;
#X connect 8 0 10 0;
#X connect 8 0 19 0;
#X connect 9 0 16 0;
#X connect 9 0 17 0;
#X connect 10 0 13 0;
#X connect 12 0 19 1;
#X connect 13 0 21 1;
#X connect 15 0 9 0;
#X connect 16 0 12 0;
#X connect 17 0 21 0;
#X connect 18 0 24 0;
#X connect 19 0 20 0;
#X connect 19 0 18 0;
#X connect 21 0 18 1;
#X connect 21 0 23 0;
#X connect 22 0 15 0;
#X connect 23 0 18 0;
#X connect 23 1 18 1;
#X connect 24 0 25 0;
#X connect 25 0 11 0;
#X connect 25 0 1 0;
#X connect 26 0 10 1;
#X connect 26 0 14 0;
#X restore 70 200 pd bow;
#N canvas 917 346 803 603 pluck 0;
#X obj 70 50 inlet yaxis;
#X obj 206 50 inlet touchin;
#X obj 210 90 sel 0;
#X floatatom 50 90 5 0 0 0 - - - 0;
#X floatatom 390 100 5 0 0 0 - - - 0;
#X floatatom 180 260 5 0 0 0 - - - 0;
#X obj 137 116 t b;
#X obj 52 127 sel 0;
#X floatatom 90 160 5 0 0 0 - - - 0;
#X obj 180 200 expr if(abs($f2) > 5 \, abs($f2) / 59 \, 0);
#X obj 170 390 line;
#X obj 170 320 pack;
#X obj 210 290 t b;
#X obj 253 344 del;
#X msg 250 310 100;
#X obj 234 374 list 0 500;
#X obj 170 450 outlet amp;
#X connect 0 0 3 0;
#X connect 0 0 7 0;
#X connect 1 0 2 0;
#X connect 1 0 4 0;
#X connect 2 0 6 0;
#X connect 5 0 11 0;
#X connect 5 0 12 0;
#X connect 6 0 9 0;
#X connect 7 1 8 0;
#X connect 8 0 9 1;
#X connect 9 0 5 0;
#X connect 10 0 16 0;
#X connect 11 0 10 0;
#X connect 12 0 14 0;
#X connect 13 0 15 0;
#X connect 14 0 11 1;
#X connect 14 0 13 0;
#X connect 15 0 10 0;
#X restore 150 200 pd pluck;
#X connect 1 0 2 0;
#X connect 2 0 6 0;
#X connect 2 1 11 1;
#X connect 2 1 12 0;
#X connect 2 2 11 0;
#X connect 2 3 7 1;
#X connect 2 4 11 2;
#X connect 2 4 12 1;
#X connect 6 0 7 0;
#X connect 7 0 8 0;
#X connect 8 0 10 0;
#X connect 9 0 0 0;
#X connect 10 0 9 0;
#X connect 11 0 5 0;
#X connect 11 0 9 1;
#X connect 12 0 9 1;
#X connect 12 0 5 0;
