#N canvas 239 100 1570 888 10;
#X obj 78 358 outlet amp;
#X obj 125 322 outlet~ wave;
#X obj 31 164 / 171;
#X obj 129 179 +;
#X obj 139 202 mtof;
#X obj 124 288 *~;
#X obj 78 214 / 127;
#X obj 32 20 inlet channel;
#X obj 32 69 strisoNote;
#X obj 172 68 strisoRot;
#X obj 323 66 strisoAccel;
#X obj 141 226 phasor~ 0;
#X connect 2 0 3 0;
#X connect 3 0 4 0;
#X connect 4 0 11 0;
#X connect 5 0 1 0;
#X connect 6 0 5 1;
#X connect 6 0 0 0;
#X connect 7 0 8 0;
#X connect 8 0 2 0;
#X connect 8 2 6 0;
#X connect 8 3 3 1;
#X connect 11 0 5 0;
