#N canvas 239 100 1570 888 10;
#X obj 125 322 outlet~ wave;
#X obj 32 20 inlet channel;
#X obj 32 69 strisoNote;
#X obj 172 68 strisoRot;
#X obj 323 66 strisoAccel;
#X obj 124 182 adsr~;
#X obj 78 358 outlet~ amp;
#X obj 144 139 / 171;
#X obj 242 154 +;
#X obj 252 177 mtof;
#X obj 240 256 *~;
#X obj 254 201 phasor~ 0;
#X connect 1 0 2 0;
#X connect 2 0 7 0;
#X connect 2 2 5 1;
#X connect 2 3 8 1;
#X connect 2 4 5 0;
#X connect 5 0 6 0;
#X connect 5 0 10 1;
#X connect 7 0 8 0;
#X connect 8 0 9 0;
#X connect 9 0 11 0;
#X connect 10 0 0 0;
#X connect 11 0 10 0;
